<mxfile host="app.diagrams.net" modified="2024-05-25T15:38:11.351Z" agent="Mozilla/5.0 (Windows NT 10.0; Win64; x64) AppleWebKit/537.36 (KHTML, like Gecko) Chrome/125.0.0.0 Safari/537.36" etag="9kJdspfD4urS8bo4SwzD" version="24.4.8" type="device">
  <diagram name="Страница — 1" id="tMsAudIjNtCxfDiUMKOT">
    <mxGraphModel dx="1562" dy="810" grid="1" gridSize="10" guides="1" tooltips="1" connect="1" arrows="1" fold="1" page="1" pageScale="1" pageWidth="827" pageHeight="1169" math="0" shadow="0">
      <root>
        <mxCell id="0" />
        <mxCell id="1" parent="0" />
        <mxCell id="4gXDeP_Qzk3SGeTuI_AE-1" value="Class&lt;div&gt;Animals&lt;/div&gt;" style="rounded=0;whiteSpace=wrap;html=1;" parent="1" vertex="1">
          <mxGeometry x="354" y="60" width="120" height="60" as="geometry" />
        </mxCell>
        <mxCell id="4gXDeP_Qzk3SGeTuI_AE-14" style="edgeStyle=orthogonalEdgeStyle;rounded=0;orthogonalLoop=1;jettySize=auto;html=1;entryX=0.5;entryY=1;entryDx=0;entryDy=0;" parent="1" source="4gXDeP_Qzk3SGeTuI_AE-2" target="4gXDeP_Qzk3SGeTuI_AE-1" edge="1">
          <mxGeometry relative="1" as="geometry">
            <Array as="points">
              <mxPoint x="220" y="150" />
              <mxPoint x="414" y="150" />
            </Array>
          </mxGeometry>
        </mxCell>
        <mxCell id="4gXDeP_Qzk3SGeTuI_AE-17" value="Extends" style="edgeLabel;html=1;align=center;verticalAlign=middle;resizable=0;points=[];" parent="4gXDeP_Qzk3SGeTuI_AE-14" vertex="1" connectable="0">
          <mxGeometry x="0.0093" relative="1" as="geometry">
            <mxPoint as="offset" />
          </mxGeometry>
        </mxCell>
        <mxCell id="4gXDeP_Qzk3SGeTuI_AE-2" value="Class&lt;div&gt;HomeAnimals&lt;/div&gt;" style="rounded=0;whiteSpace=wrap;html=1;" parent="1" vertex="1">
          <mxGeometry x="160" y="180" width="120" height="60" as="geometry" />
        </mxCell>
        <mxCell id="4gXDeP_Qzk3SGeTuI_AE-15" style="edgeStyle=orthogonalEdgeStyle;rounded=0;orthogonalLoop=1;jettySize=auto;html=1;entryX=0.5;entryY=1;entryDx=0;entryDy=0;" parent="1" source="4gXDeP_Qzk3SGeTuI_AE-3" target="4gXDeP_Qzk3SGeTuI_AE-1" edge="1">
          <mxGeometry relative="1" as="geometry">
            <Array as="points">
              <mxPoint x="620" y="150" />
              <mxPoint x="414" y="150" />
            </Array>
          </mxGeometry>
        </mxCell>
        <mxCell id="4gXDeP_Qzk3SGeTuI_AE-16" value="Extends" style="edgeLabel;html=1;align=center;verticalAlign=middle;resizable=0;points=[];" parent="4gXDeP_Qzk3SGeTuI_AE-15" vertex="1" connectable="0">
          <mxGeometry x="-0.0628" relative="1" as="geometry">
            <mxPoint as="offset" />
          </mxGeometry>
        </mxCell>
        <mxCell id="4gXDeP_Qzk3SGeTuI_AE-3" value="Class&lt;div&gt;PackAnimals&lt;/div&gt;" style="rounded=0;whiteSpace=wrap;html=1;" parent="1" vertex="1">
          <mxGeometry x="560" y="180" width="120" height="60" as="geometry" />
        </mxCell>
        <mxCell id="4gXDeP_Qzk3SGeTuI_AE-10" style="edgeStyle=orthogonalEdgeStyle;rounded=0;orthogonalLoop=1;jettySize=auto;html=1;entryX=0.5;entryY=1;entryDx=0;entryDy=0;" parent="1" source="4gXDeP_Qzk3SGeTuI_AE-4" target="4gXDeP_Qzk3SGeTuI_AE-2" edge="1">
          <mxGeometry relative="1" as="geometry">
            <Array as="points">
              <mxPoint x="80" y="260" />
              <mxPoint x="220" y="260" />
            </Array>
          </mxGeometry>
        </mxCell>
        <mxCell id="46nYaXcID_JBNC_6DUxX-4" value="Extends" style="edgeLabel;html=1;align=center;verticalAlign=middle;resizable=0;points=[];" vertex="1" connectable="0" parent="4gXDeP_Qzk3SGeTuI_AE-10">
          <mxGeometry x="0.1124" y="-3" relative="1" as="geometry">
            <mxPoint as="offset" />
          </mxGeometry>
        </mxCell>
        <mxCell id="4gXDeP_Qzk3SGeTuI_AE-4" value="Class&lt;div&gt;Cat&lt;/div&gt;" style="rounded=0;whiteSpace=wrap;html=1;" parent="1" vertex="1">
          <mxGeometry x="20" y="310" width="120" height="60" as="geometry" />
        </mxCell>
        <mxCell id="4gXDeP_Qzk3SGeTuI_AE-11" value="" style="edgeStyle=orthogonalEdgeStyle;rounded=0;orthogonalLoop=1;jettySize=auto;html=1;" parent="1" source="4gXDeP_Qzk3SGeTuI_AE-5" target="4gXDeP_Qzk3SGeTuI_AE-2" edge="1">
          <mxGeometry relative="1" as="geometry" />
        </mxCell>
        <mxCell id="4gXDeP_Qzk3SGeTuI_AE-13" value="Extends" style="edgeLabel;html=1;align=center;verticalAlign=middle;resizable=0;points=[];" parent="4gXDeP_Qzk3SGeTuI_AE-11" vertex="1" connectable="0">
          <mxGeometry x="-0.2622" y="1" relative="1" as="geometry">
            <mxPoint as="offset" />
          </mxGeometry>
        </mxCell>
        <mxCell id="4gXDeP_Qzk3SGeTuI_AE-5" value="Class&lt;div&gt;Dog&lt;/div&gt;" style="rounded=0;whiteSpace=wrap;html=1;" parent="1" vertex="1">
          <mxGeometry x="160" y="310" width="120" height="60" as="geometry" />
        </mxCell>
        <mxCell id="4gXDeP_Qzk3SGeTuI_AE-12" style="edgeStyle=orthogonalEdgeStyle;rounded=0;orthogonalLoop=1;jettySize=auto;html=1;entryX=0.5;entryY=1;entryDx=0;entryDy=0;" parent="1" source="4gXDeP_Qzk3SGeTuI_AE-6" target="4gXDeP_Qzk3SGeTuI_AE-2" edge="1">
          <mxGeometry relative="1" as="geometry">
            <Array as="points">
              <mxPoint x="360" y="260" />
              <mxPoint x="220" y="260" />
            </Array>
          </mxGeometry>
        </mxCell>
        <mxCell id="46nYaXcID_JBNC_6DUxX-3" value="Extends" style="edgeLabel;html=1;align=center;verticalAlign=middle;resizable=0;points=[];" vertex="1" connectable="0" parent="4gXDeP_Qzk3SGeTuI_AE-12">
          <mxGeometry x="0.059" y="-1" relative="1" as="geometry">
            <mxPoint as="offset" />
          </mxGeometry>
        </mxCell>
        <mxCell id="4gXDeP_Qzk3SGeTuI_AE-6" value="Class&lt;div&gt;Hamster&lt;/div&gt;" style="rounded=0;whiteSpace=wrap;html=1;" parent="1" vertex="1">
          <mxGeometry x="300" y="310" width="120" height="60" as="geometry" />
        </mxCell>
        <mxCell id="4gXDeP_Qzk3SGeTuI_AE-19" style="edgeStyle=orthogonalEdgeStyle;rounded=0;orthogonalLoop=1;jettySize=auto;html=1;entryX=0.5;entryY=1;entryDx=0;entryDy=0;" parent="1" source="4gXDeP_Qzk3SGeTuI_AE-7" target="4gXDeP_Qzk3SGeTuI_AE-3" edge="1">
          <mxGeometry relative="1" as="geometry" />
        </mxCell>
        <mxCell id="46nYaXcID_JBNC_6DUxX-1" value="Extends" style="edgeLabel;html=1;align=center;verticalAlign=middle;resizable=0;points=[];" vertex="1" connectable="0" parent="4gXDeP_Qzk3SGeTuI_AE-19">
          <mxGeometry x="-0.3371" y="1" relative="1" as="geometry">
            <mxPoint as="offset" />
          </mxGeometry>
        </mxCell>
        <mxCell id="4gXDeP_Qzk3SGeTuI_AE-7" value="Class&lt;div&gt;Camel&lt;/div&gt;" style="rounded=0;whiteSpace=wrap;html=1;" parent="1" vertex="1">
          <mxGeometry x="560" y="310" width="120" height="60" as="geometry" />
        </mxCell>
        <mxCell id="4gXDeP_Qzk3SGeTuI_AE-20" style="edgeStyle=orthogonalEdgeStyle;rounded=0;orthogonalLoop=1;jettySize=auto;html=1;entryX=0.5;entryY=1;entryDx=0;entryDy=0;" parent="1" source="4gXDeP_Qzk3SGeTuI_AE-8" target="4gXDeP_Qzk3SGeTuI_AE-3" edge="1">
          <mxGeometry relative="1" as="geometry">
            <Array as="points">
              <mxPoint x="760" y="260" />
              <mxPoint x="620" y="260" />
            </Array>
          </mxGeometry>
        </mxCell>
        <mxCell id="46nYaXcID_JBNC_6DUxX-2" value="Extends" style="edgeLabel;html=1;align=center;verticalAlign=middle;resizable=0;points=[];" vertex="1" connectable="0" parent="4gXDeP_Qzk3SGeTuI_AE-20">
          <mxGeometry x="-0.0362" relative="1" as="geometry">
            <mxPoint as="offset" />
          </mxGeometry>
        </mxCell>
        <mxCell id="4gXDeP_Qzk3SGeTuI_AE-8" value="Class&lt;div&gt;Mule&lt;/div&gt;" style="rounded=0;whiteSpace=wrap;html=1;" parent="1" vertex="1">
          <mxGeometry x="700" y="310" width="120" height="60" as="geometry" />
        </mxCell>
        <mxCell id="4gXDeP_Qzk3SGeTuI_AE-18" style="edgeStyle=orthogonalEdgeStyle;rounded=0;orthogonalLoop=1;jettySize=auto;html=1;entryX=0.5;entryY=1;entryDx=0;entryDy=0;" parent="1" source="4gXDeP_Qzk3SGeTuI_AE-9" target="4gXDeP_Qzk3SGeTuI_AE-3" edge="1">
          <mxGeometry relative="1" as="geometry">
            <Array as="points">
              <mxPoint x="490" y="260" />
              <mxPoint x="620" y="260" />
            </Array>
          </mxGeometry>
        </mxCell>
        <mxCell id="4gXDeP_Qzk3SGeTuI_AE-23" value="Extends" style="edgeLabel;html=1;align=center;verticalAlign=middle;resizable=0;points=[];" parent="4gXDeP_Qzk3SGeTuI_AE-18" vertex="1" connectable="0">
          <mxGeometry x="0.0288" y="-1" relative="1" as="geometry">
            <mxPoint x="1" as="offset" />
          </mxGeometry>
        </mxCell>
        <mxCell id="4gXDeP_Qzk3SGeTuI_AE-9" value="Class&lt;div&gt;Horse&lt;/div&gt;" style="rounded=0;whiteSpace=wrap;html=1;" parent="1" vertex="1">
          <mxGeometry x="430" y="310" width="120" height="60" as="geometry" />
        </mxCell>
      </root>
    </mxGraphModel>
  </diagram>
</mxfile>
